{"title":"Joy.Ride.3.2014.HDRip.XviD.AC3-EVO","uid":10286395,"size":1491242607,"categoryP":"video","categoryS":"movies","magnet":"?xt=urn:btih:ee332e0d6c91bc98af8c960cf4c295feec9f8c75&amp;dn=Joy.Ride.3.2014.HDRip.XviD.AC3-EVO&amp;tr=udp%3A%2F%2Ftracker.openbittorrent.com%3A80&amp;tr=udp%3A%2F%2Fopen.demonii.com%3A1337&amp;tr=udp%3A%2F%2Ftracker.coppersurfer.tk%3A6969&amp;tr=udp%3A%2F%2Fexodus.desync.com%3A6969","seeders":2,"leechers":0,"uploader":"xxxlavalxxx","files":-1,"time":1401788403,"description":"\n &lt;a href=&quot;\nhttp://www.imdb.com/title/tt3138376/&quot; rel=&quot;nofollow&quot; target=&quot;_NEW&quot;&gt;\nhttp://www.imdb.com/title/tt3138376/&lt;/a&gt;\n\n\nRusty Nail is back on the road again looking to punish injustice at every turn - and this time it's with a group of hotheaded street racers on their way to the Road Rally 1000. As they drive through a desolate shortcut on the way to the race, an encounter with Rusty turns sour and soon he is tracking, teasing and torturing them until the end of the road.\n\nDirector: Declan O'Brien\nWriter: Declan O'Brien\nStars: Kirsten Prout, Ben Hollingsworth, Ken Kirzinger \nGenres: Thriller\nCountry: USA\nLanguage: English\n\n\nFormat                                   : AVI\nFormat/Info                              : Audio Video Interleave\nFormat profile                           : OpenDML\nFormat settings                          : rec\nFile size                                : 1.39 GiB\nDuration                                 : 1h 36mn\nOverall bit rate                         : 2 063 Kbps\nWriting application                      : AVI-Mux GUI 1.17.8.3, Feb 16 201019:42:50\n\nVideo\nID                                       : 0\nFormat                                   : MPEG-4 Visual\nFormat profile                           : Advanced Simple@L5\nFormat settings, BVOP                    : 2\nFormat settings, QPel                    : No\nFormat settings, GMC                     : No warppoints\nFormat settings, Matrix                  : Default (H.263)\nMuxing mode                              : Packed bitstream\nCodec ID                                 : XVID\nCodec ID/Hint                            : XviD\nDuration                                 : 1h 36mn\nBit rate                                 : 1 675 Kbps\nWidth                                    : 720 pixels\nHeight                                   : 400 pixels\nDisplay aspect ratio                     : 16:9\nFrame rate                               : 23.976 fps\nColor space                              : YUV\nChroma subsampling                       : 4:2:0\nBit depth                                : 8 bits\nScan type                                : Progressive\nCompression mode                         : Lossy\nBits/(Pixel*Frame)                       : 0.243\nStream size                              : 1.13 GiB (81%)\nWriting library                          : XviD 65\n\nAudio\nID                                       : 1\nFormat                                   : AC-3\nFormat/Info                              : Audio Coding 3\nMode extension                           : CM (complete main)\nCodec ID                                 : 2000\nDuration                                 : 1h 35mn\nBit rate mode                            : Constant\nBit rate                                 : 384 Kbps\nChannel(s)                               : 6 channels\nChannel positions                        : Front: L C R, Side: L R, LFE\nSampling rate                            : 48.0 KHz\nBit depth                                : 16 bits\nCompression mode                         : Lossy\nStream size                              : 263 MiB (19%)\nAlignment                                : Aligned on interleaves\nInterleave, duration                     : 64 ms (1.54 video frames)\nInterleave, preload duration             : 192 ms\nTitle                                    : Joy.Ride.3.2014.HDRip.XviD.AC3-EVO\n\n\n\ninfo\n &lt;a href=&quot;\nhttp://i.imgur.com/Fg5LyI6.png&quot; rel=&quot;nofollow&quot; target=&quot;_NEW&quot;&gt;\nhttp://i.imgur.com/Fg5LyI6.png&lt;/a&gt;\n\n\nscreens\n &lt;a href=&quot;\nhttp://i.imgur.com/HdlwNyf.jpg&quot; rel=&quot;nofollow&quot; target=&quot;_NEW&quot;&gt;\nhttp://i.imgur.com/HdlwNyf.jpg&lt;/a&gt; &lt;a href=&quot;\nhttp://i.imgur.com/TK10sy5.jpg&quot; rel=&quot;nofollow&quot; target=&quot;_NEW&quot;&gt;\nhttp://i.imgur.com/TK10sy5.jpg&lt;/a&gt; &lt;a href=&quot;\nhttp://i.imgur.com/SkLZa1q.jpg&quot; rel=&quot;nofollow&quot; target=&quot;_NEW&quot;&gt;\nhttp://i.imgur.com/SkLZa1q.jpg&lt;/a&gt; &lt;a href=&quot;\nhttp://i.imgur.com/2xnLNjh.jpg&quot; rel=&quot;nofollow&quot; target=&quot;_NEW&quot;&gt;\nhttp://i.imgur.com/2xnLNjh.jpg&lt;/a&gt; &lt;a href=&quot;\nhttp://i.imgur.com/7aJToaX.jpg&quot; rel=&quot;nofollow&quot; target=&quot;_NEW&quot;&gt;\nhttp://i.imgur.com/7aJToaX.jpg&lt;/a&gt;","torrent":{"xt":"urn:btih:ee332e0d6c91bc98af8c960cf4c295feec9f8c75","amp;dn":"Joy.Ride.3.2014.HDRip.XviD.AC3-EVO","amp;tr":["udp%3A%2F%2Ftracker.openbittorrent.com%3A80","udp%3A%2F%2Fopen.demonii.com%3A1337","udp%3A%2F%2Ftracker.coppersurfer.tk%3A6969","udp%3A%2F%2Fexodus.desync.com%3A6969"],"infoHash":"ee332e0d6c91bc98af8c960cf4c295feec9f8c75","infoHashBuffer":{"type":"Buffer","data":[238,51,46,13,108,145,188,152,175,140,150,12,244,194,149,254,236,159,140,117]},"announce":[],"urlList":[]}}